PathFileType	4	(X/Y/Z)	E:\Qualisys_Data\Carbon_Farble_Plate\Data\Amateur_Runner\S14\T3\S14T3V13_c3d.trc
DataRate	CameraRate	NumFrames	NumMarkers	Units	OrigDataRate	OrigDataStartFrame	OrigNumFrames
200.000000	200.000000	5	39	mm	200.000000	210	336
Frame#	Time	LSHO			RSHO			LICST			RICST			LASIS			LHEEL			RASIS			LTROC			RTROC			SACR			LTH1			LSK4			LTH2			LTH3			RHM5			LSK2			LTH4			RTH1			LTOE			RTH2			RTH3			RTH4			LLEP			RLEP			LSK1			LSK3			RSK1			LHM5			RSK2			LFT1			RSK3			RSK4			LLME			RLME			RTOE			RHEEL			RFT1			RFT2			LFT2			
		X1	Y1	Z1	X2	Y2	Z2	X3	Y3	Z3	X4	Y4	Z4	X5	Y5	Z5	X6	Y6	Z6	X7	Y7	Z7	X8	Y8	Z8	X9	Y9	Z9	X10	Y10	Z10	X11	Y11	Z11	X12	Y12	Z12	X13	Y13	Z13	X14	Y14	Z14	X15	Y15	Z15	X16	Y16	Z16	X17	Y17	Z17	X18	Y18	Z18	X19	Y19	Z19	X20	Y20	Z20	X21	Y21	Z21	X22	Y22	Z22	X23	Y23	Z23	X24	Y24	Z24	X25	Y25	Z25	X26	Y26	Z26	X27	Y27	Z27	X28	Y28	Z28	X29	Y29	Z29	X30	Y30	Z30	X31	Y31	Z31	X32	Y32	Z32	X33	Y33	Z33	X34	Y34	Z34	X35	Y35	Z35	X36	Y36	Z36	X37	Y37	Z37	X38	Y38	Z38	X39	Y39	Z39	

211	1.05	509.0679626464844	1381.573364257812	-469.2371826171875	528.3282470703125	1371.217163085938	-160.31787109375	449.8412780761719	931.7189331054688	-450.6753234863281	473.1415405273438	944.9842529296876	-169.6942443847656	495.9368896484375	884.2477416992188	-427.6166381835938	165.4044036865234	384.4880065917969	-346.7469482421875	502.94189453125	907.5409545898438	-191.2397613525391	367.2857055664062	804.7957763671875	-460.6404113769531	362.0567321777344	829.1812133789062	-136.6314392089844	322.7528991699219	939.42724609375	-314.7996520996094	519.96044921875	615.6380004882812	-483.2470703125	350.5031127929688	431.4735107421875	-433.2508544921875	453.7896728515625	585.2486572265625	-452.1537170410156	569.4725341796875	529.0106811523438	-470.3190002441406	383.89013671875	55.68775939941406	-187.3628845214844	439.6024780273438	466.1046447753906	-458.9111328125	498.5159912109375	497.5500183105469	-444.5050964355469	519.8372192382812	615.6358642578125	-141.1815185546875	226.2805480957031	130.2068634033203	-376.6536254882812	443.5786743164062	610.5537109375	-137.7058258056641	529.8603515625	520.7868041992188	-175.4495544433594	447.0442504882812	512.3243408203125	-162.7663421630859	528.2628784179688	462.5024108886719	-467.8966369628906	476.0952453613281	445.3269348144531	-174.5947418212891	471.3811645507812	389.4037475585938	-455.4356384277344	378.02001953125	354.8949584960938	-433.0406799316406	452.2333984375	322.530517578125	-181.1797485351562	189.3417816162109	193.9791107177734	-435.0220031738281	375.4874572753906	359.7303466796875	-171.8365020751953	140.8038787841797	365.70263671875	-318.0773620605469	398.8192749023438	236.104248046875	-202.4309387207031	332.5289916992188	275.865478515625	-190.6472320556641	204.9617156982422	338.8934936523438	-407.0256652832031	270.8460693359375	119.1930618286133	-221.5399017333984	455.8342895507812	55.0152702331543	-258.0761413574219	201.7568511962891	96.15225982666016	-277.3149719238281	209.2533264160156	65.59111022949219	-303.0375671386719	194.5967102050781	76.76931762695312	-252.3271331787109	136.8441009521484	374.6566772460938	-372.3782958984375
212	1.055	521.286865234375	1384.570678710938	-469.9940795898438	546.598388671875	1374.54931640625	-161.8147583007812	464.9429016113281	934.6376953125	-450.6510009765625	488.9748229980469	947.7807006835938	-169.6731262207031	510.2900085449219	887.1534423828125	-426.7015991210938	189.4808807373047	376.4468078613281	-347.479248046875	518.8506469726562	909.6663208007812	-190.8173828125	383.5347900390625	808.1134033203125	-461.2129821777344	376.8722229003906	832.2252197265625	-136.4413604736328	338.1621704101562	942.1222534179688	-314.2371826171875	538.7550659179688	620.5125732421875	-482.7061462402344	373.8729858398438	430.1474304199219	-433.0247497558594	473.3538513183594	588.2809448242188	-451.6519165039062	590.33056640625	535.1065673828125	-469.5806579589844	384.4088134765625	55.92076110839844	-187.5025787353516	461.9286804199219	467.7391052246094	-458.1396484375	519.92431640625	502.0785217285156	-443.7008056640625	529.4053344726562	615.5468139648438	-141.5622253417969	261.1776123046875	124.7097778320312	-376.6275634765625	451.743408203125	613.0978393554688	-136.4435119628906	536.5384521484375	520.250732421875	-175.59130859375	452.9210205078125	513.7421264648438	-162.8023986816406	550.749755859375	467.4815979003906	-467.0459899902344	481.2287902832031	446.1468200683594	-174.7901611328125	495.7894592285156	392.350341796875	-454.6290588378906	403.6058654785156	354.6309814453125	-433.054443359375	455.6672668457031	323.9671630859375	-180.7243194580078	221.8257141113281	186.8970794677734	-435.2082214355469	379.0621643066406	361.7534484863281	-172.1479644775391	165.7144012451172	356.7564392089844	-318.3086242675781	401.2956237792969	237.7252502441406	-202.4917602539062	335.0404663085938	278.28662109375	-190.63134765625	231.2257843017578	332.3902893066406	-407.410888671875	272.0309753417969	121.5928344726562	-221.6567230224609	455.989501953125	54.99716567993164	-258.1091918945312	202.5536499023438	99.0065460205078	-277.4528198242188	209.1558380126953	68.3625259399414	-304.4672546386719	195.7426605224609	79.82864379882812	-252.3755035400391	161.4191436767578	365.36474609375	-372.9699096679688
213	1.06	533.5643310546875	1387.99951171875	-470.700439453125	564.4321899414062	1377.940063476562	-163.5130462646484	479.8484802246094	938.01708984375	-450.86669921875	505.1983642578125	950.6557006835938	-169.2749938964844	525.6397094726562	890.2286987304688	-426.2909851074219	211.3214721679688	367.6593322753906	-348.7677917480469	534.5338745117188	912.165771484375	-190.6270751953125	399.7378540039062	811.4158935546875	-461.7408752441406	391.9718017578125	835.409912109375	-136.3648681640625	353.8666381835938	945.340576171875	-314.2025146484375	557.8889770507812	625.9558715820312	-482.4508056640625	397.0868530273438	428.8779602050781	-433.2489318847656	492.7299194335938	592.66357421875	-451.3025512695312	610.7354736328125	541.339599609375	-468.8179931640625	384.8226928710938	55.96577072143555	-187.6291656494141	484.0552062988281	469.1896667480469	-457.3688049316406	541.034912109375	507.4264526367188	-443.1627502441406	538.6443481445312	615.8202514648438	-141.9199981689453	296.5957336425781	119.7326812744141	-376.1458129882812	460.6770935058594	615.6842041015625	-137.0416107177734	543.4682006835938	520.1260986328125	-175.8894653320312	459.8772888183594	516.1593627929688	-163.208740234375	572.7418823242188	472.4049072265625	-466.503173828125	485.7441101074219	447.8516845703125	-174.6998596191406	520.4708862304688	395.2276306152344	-453.74755859375	429.8160095214844	354.1485290527344	-432.5135498046875	459.0793762207031	325.3896179199219	-180.7074737548828	254.8497924804688	180.045166015625	-435.5526123046875	382.6091918945312	363.9478454589844	-172.5091094970703	190.5768585205078	347.6756896972656	-318.6957397460938	403.9512634277344	239.8721313476562	-202.6298217773438	338.2412414550781	281.1083374023438	-190.5190734863281	257.6590270996094	325.4244384765625	-407.4901733398438	273.6644287109375	124.294921875	-221.7407531738281	456.2186584472656	54.79972839355469	-258.1995544433594	204.0728149414062	102.7476577758789	-276.9589538574219	208.6703491210938	71.53214263916016	-304.8651428222656	197.2342681884766	83.69275665283203	-252.2336883544922	186.115966796875	355.437255859375	-373.7359619140625
214	1.065	546.1415405273438	1391.394165039062	-471.66015625	582.5114135742188	1381.404541015625	-165.3059692382812	495.0849304199219	941.0689697265624	-450.8276672363281	521.6035766601562	954.2020263671876	-169.6273651123047	541.2701416015625	893.3206176757812	-426.0154418945312	235.8488311767578	358.8063354492188	-349.3232421875	550.6949462890625	914.8540649414062	-190.5245056152344	415.8551635742188	815.5281982421875	-462.3173828125	407.5362243652344	839.0409545898438	-135.6337432861328	369.5335083007812	948.4047241210938	-313.697998046875	577.0983276367188	631.312255859375	-481.9521789550781	419.4690551757812	427.4843444824219	-433.0721130371094	512.1932373046875	596.8466796875	-451.6802978515625	631.417236328125	547.6250610351562	-467.9068603515625	385.4662170410156	56.19635009765625	-187.5910186767578	505.0366821289062	471.1120300292969	-456.7802124023438	562.0729370117188	512.739501953125	-442.9523315429688	548.0585327148438	616.4611206054688	-142.0542907714844	332.1565246582031	114.9378890991211	-376.5320129394531	470.2532958984375	617.874755859375	-137.4556274414062	550.3380737304688	520.877685546875	-176.1081237792969	466.8040466308594	519.0496826171875	-163.8580627441406	594.7062377929688	477.2633972167969	-465.2093505859375	491.02099609375	449.3044738769531	-175.2289123535156	544.7529907226562	397.6314086914062	-453.0997924804688	454.9381713867188	354.1811218261719	-432.2042846679688	462.9203186035156	327.7815551757812	-181.0714721679688	288.2375793457031	173.0574645996094	-435.4977111816406	386.818115234375	366.7489624023438	-172.3388061523438	215.9437103271484	337.4530334472656	-319.6197814941406	406.4134216308594	242.2592010498047	-202.0315093994141	341.3945922851562	284.2357482910156	-190.8499908447266	284.1447143554688	318.4979248046875	-407.8565368652344	276.0892028808594	127.3472671508789	-221.517822265625	456.8244323730469	54.7043571472168	-258.1930541992188	206.2474517822266	107.38037109375	-276.1085815429688	210.2185211181641	75.78044891357422	-304.4400024414062	199.0653686523438	87.66040802001953	-251.7027435302734	210.9947204589844	344.8603210449219	-374.4478454589844
215	1.07	557.9572143554688	1395.383178710938	-472.0597839355469	600.098876953125	1385.21240234375	-167.0022125244141	511.9217834472656	944.764892578125	-449.5285949707031	538.3929443359375	957.4977416992188	-169.7975616455078	557.0040893554688	896.71630859375	-425.6253051757812	262.6099243164062	349.7965087890625	-348.6830444335938	566.7347412109375	917.9287719726562	-189.9067687988281	432.4303283691406	819.5509033203125	-463.1358947753906	423.1399536132812	842.404541015625	-135.229248046875	385.5794372558594	951.9970092773438	-313.6835632324219	595.999755859375	636.330810546875	-481.4634704589844	442.0880737304688	425.6783447265625	-432.8140869140625	531.4720458984375	601.2584838867188	-451.8672180175781	651.2935791015625	553.877685546875	-466.8409729003906	386.1261901855469	56.30252838134766	-187.2534027099609	526.2271728515625	473.0434875488281	-455.9442749023438	582.6423950195312	517.8857421875	-442.2425231933594	557.7345581054688	617.8628540039062	-142.5956573486328	368.5458068847656	110.2635955810547	-376.812255859375	480.4122924804688	621.572021484375	-137.0388488769531	557.7318725585938	521.9722900390625	-176.6534118652344	474.2322692871094	522.1010131835938	-164.4727478027344	615.9122924804688	482.7460021972656	-464.8060607910156	496.6336059570312	451.6392517089844	-175.5739898681641	568.765869140625	399.9676818847656	-451.515869140625	480.291015625	353.8119812011719	-431.9811706542969	466.9668884277344	330.0689392089844	-181.1861572265625	321.8337097167969	166.2210235595703	-436.2215270996094	391.5562133789062	369.9808654785156	-172.3418426513672	241.6434326171875	326.4117736816406	-320.2979125976562	410.017822265625	245.4452056884766	-201.7464447021484	344.917236328125	287.6978149414062	-190.4827880859375	311.2721862792969	310.8890380859375	-407.3487243652344	277.9731140136719	130.8432006835938	-221.1907043457031	457.1069030761719	54.3952522277832	-257.776123046875	208.2420806884766	111.9659805297852	-275.2618713378906	213.6358337402344	81.27970886230469	-303.4208679199219	201.4267730712891	93.0077667236328	-250.5780792236328	236.0599060058594	334.3297424316406	-374.7403564453125
